<svg xmlns="http://www.w3.org/2000/svg" width="320" height="210"><g fill="none" fill-rule="evenodd"><path fill="#FFCF02" d="M0 0h320v210H0z"/><path fill="#FFF" fill-rule="nonzero" d="M68.392 117.12c2.88 0 5.034-.54 6.462-1.62s2.142-2.652 2.142-4.716c0-1.488-.468-2.736-1.404-3.744-.936-1.008-2.376-1.632-4.32-1.872v-.036c1.752-.264 3.042-.888 3.87-1.872.828-.984 1.242-2.16 1.242-3.528 0-2.088-.714-3.666-2.142-4.734s-3.63-1.614-6.606-1.638H55v23.76h13.392zm-2.232-14.328h-4.104v-4.248h4.104c1.8 0 2.7.708 2.7 2.124 0 1.416-.9 2.124-2.7 2.124zm.54 9.36h-4.644v-4.284H66.7c.936 0 1.632.18 2.088.54.456.36.684.888.684 1.584 0 .696-.228 1.23-.684 1.602-.456.372-1.152.558-2.088.558zm32.757 4.968v-5.508H87.181v-3.78h9.432v-5.112h-9.432v-3.852H98.99V93.36H79.837v23.76h19.62zm12.67.36c2.087 0 3.78-.45 5.075-1.35a6.157 6.157 0 0 0 1.62-1.642l.125-.196.271 2.828h4.932v-13.14h-10.872v4.716h4.68v.18c0 .528-.096.99-.288 1.386a2.581 2.581 0 0 1-.846.99 4.036 4.036 0 0 1-1.278.594 5.963 5.963 0 0 1-1.584.198c-1.128 0-2.076-.234-2.844-.702-.768-.468-1.338-1.206-1.71-2.214-.372-1.008-.558-2.304-.558-3.888 0-1.464.168-2.688.504-3.672.336-.984.846-1.722 1.53-2.214s1.542-.738 2.574-.738c1.008 0 1.848.246 2.52.738.672.492 1.128 1.326 1.368 2.502l6.84-2.556c-.936-2.184-2.262-3.78-3.978-4.788-1.716-1.008-3.978-1.512-6.786-1.512-2.496 0-4.656.486-6.48 1.458a9.933 9.933 0 0 0-4.194 4.212c-.972 1.836-1.458 4.05-1.458 6.642 0 2.64.468 4.872 1.404 6.696.936 1.824 2.22 3.192 3.852 4.104 1.632.912 3.492 1.368 5.58 1.368zm23.252-.36V93.36h-7.344v23.76h7.344zm10.654 0v-10.296l-.144-4.68h.072l1.512 3.204 6.48 11.772h8.064V93.36h-6.444v10.296l.144 4.68h-.036l-1.548-3.204-6.48-11.772h-8.028v23.76h6.408zm26.709 0v-9.504l-.144-7.668h.108l5.148 17.172h5.904l5.22-17.172h.072l-.144 7.668v9.504h6.48V93.36h-9.9l-3.204 11.268-1.188 4.716h-.072l-1.188-4.716-3.204-11.268h-10.368v23.76h6.48zm31.893 0 1.364-4.931h7.24l1.332 4.931h7.56l-8.028-23.76h-8.82l-7.992 23.76h7.344zm7.321-9.683h-4.642l1.317-4.753.972-3.852h.072l1.008 3.888 1.273 4.717zm22.808 9.683V98.868h7.56V93.36h-22.536v5.508h7.632v18.252h7.344zm30.057 0v-5.508h-12.276v-3.78h9.432v-5.112h-9.432v-3.852h11.808V93.36h-19.152v23.76h19.62z"/></g></svg>