<svg xmlns="http://www.w3.org/2000/svg" width="320" height="210"><g fill="none" fill-rule="evenodd"><path fill="#FF3641" d="M0 0h320v210H0z"/><path fill="#FFF" fill-rule="nonzero" d="M110.916 117.48c2.472 0 4.59-.486 6.354-1.458 1.764-.972 3.12-2.37 4.068-4.194.948-1.824 1.422-4.02 1.422-6.588 0-2.568-.474-4.764-1.422-6.588-.948-1.824-2.304-3.222-4.068-4.194-1.764-.972-3.882-1.458-6.354-1.458-2.448 0-4.566.486-6.354 1.458-1.788.972-3.162 2.37-4.122 4.194-.96 1.824-1.44 4.02-1.44 6.588 0 2.568.48 4.764 1.44 6.588.96 1.824 2.334 3.222 4.122 4.194 1.788.972 3.906 1.458 6.354 1.458zm0-5.616c-.984 0-1.794-.246-2.43-.738-.636-.492-1.116-1.224-1.44-2.196-.324-.972-.486-2.202-.486-3.69 0-1.512.162-2.748.486-3.708.324-.96.804-1.686 1.44-2.178.636-.492 1.446-.738 2.43-.738.96 0 1.764.246 2.412.738.648.492 1.128 1.218 1.44 2.178.312.96.468 2.196.468 3.708 0 1.488-.156 2.718-.468 3.69-.312.972-.792 1.704-1.44 2.196-.648.492-1.452.738-2.412.738zm22.57 5.256-.001-6.409 2.414-3.118 5.074 9.527h8.316l-8.196-14.216 7.62-9.544h-7.956l-7.272 9.713V93.36h-7.344v23.76h7.344zm25.268 0v-6.409l2.414-3.118 5.074 9.527h8.316l-8.196-14.216 7.62-9.544h-7.956l-7.272 9.713V93.36h-7.344v23.76h7.344zm26.53.36c2.471 0 4.59-.486 6.353-1.458 1.764-.972 3.12-2.37 4.068-4.194.948-1.824 1.422-4.02 1.422-6.588 0-2.568-.474-4.764-1.422-6.588-.948-1.824-2.304-3.222-4.068-4.194-1.764-.972-3.882-1.458-6.354-1.458-2.448 0-4.566.486-6.354 1.458-1.788.972-3.162 2.37-4.122 4.194-.96 1.824-1.44 4.02-1.44 6.588 0 2.568.48 4.764 1.44 6.588.96 1.824 2.334 3.222 4.122 4.194 1.788.972 3.906 1.458 6.354 1.458zm0-5.616c-.985 0-1.795-.246-2.43-.738-.637-.492-1.117-1.224-1.44-2.196-.325-.972-.487-2.202-.487-3.69 0-1.512.162-2.748.486-3.708.324-.96.804-1.686 1.44-2.178.636-.492 1.446-.738 2.43-.738.96 0 1.764.246 2.412.738.648.492 1.128 1.218 1.44 2.178.312.96.468 2.196.468 3.708 0 1.488-.156 2.718-.468 3.69-.312.972-.792 1.704-1.44 2.196-.648.492-1.452.738-2.412.738zm27.753 5.256V98.868h7.56V93.36H198.06v5.508h7.632v18.252h7.344z"/></g></svg>