<svg xmlns="http://www.w3.org/2000/svg" width="320" height="210"><g fill="none" fill-rule="evenodd"><path fill="#6963F7" d="M0 0h320v210H0z"/><path fill="#FFF" fill-rule="nonzero" d="M109.344 117.12v-7.416h4.464c2.04 0 3.774-.318 5.202-.954 1.428-.636 2.52-1.56 3.276-2.772.756-1.212 1.134-2.694 1.134-4.446 0-1.752-.378-3.234-1.134-4.446-.756-1.212-1.848-2.136-3.276-2.772-1.428-.636-3.162-.954-5.202-.954H102v23.76h7.344zm3.276-12.744h-3.276v-5.688h3.276c1.08 0 1.92.234 2.52.702.6.468.9 1.182.9 2.142s-.3 1.674-.9 2.142c-.6.468-1.44.702-2.52.702zm32.65 12.744v-5.508h-11.305V93.36h-7.344v23.76h18.648zm7.988 0 1.365-4.931h7.24l1.331 4.931h7.56l-8.028-23.76h-8.82l-7.992 23.76h7.344zm7.322-9.683h-4.642l1.316-4.753.972-3.852h.072l1.008 3.888 1.274 4.717zm21.871 10.043c1.968 0 3.732-.3 5.292-.9 1.56-.6 2.79-1.5 3.69-2.7.9-1.2 1.35-2.7 1.35-4.5 0-1.848-.588-3.306-1.764-4.374-1.176-1.068-2.964-1.878-5.364-2.43l-3.6-.828c-.84-.192-1.494-.408-1.962-.648-.468-.24-.702-.552-.702-.936 0-.312.102-.594.306-.846.204-.252.534-.45.99-.594.456-.144 1.056-.216 1.8-.216 1.464 0 2.802.258 4.014.774a13.546 13.546 0 0 1 3.438 2.142l3.204-4.716a12.741 12.741 0 0 0-4.608-2.79c-1.752-.612-3.756-.918-6.012-.918s-4.188.336-5.796 1.008c-1.608.672-2.832 1.608-3.672 2.808-.84 1.2-1.26 2.58-1.26 4.14 0 1.464.33 2.646.99 3.546.66.9 1.542 1.602 2.646 2.106 1.104.504 2.304.9 3.6 1.188l3.96.9c.864.192 1.452.414 1.764.666.312.252.468.582.468.99 0 .336-.096.624-.288.864-.192.24-.51.426-.954.558-.444.132-1.014.198-1.71.198-.984 0-2.004-.144-3.06-.432a14.73 14.73 0 0 1-2.988-1.17c-.936-.492-1.728-1.05-2.376-1.674l-3.168 4.86c.888.816 1.944 1.518 3.168 2.106 1.224.588 2.574 1.038 4.05 1.35 1.476.312 2.994.468 4.554.468zm20.698-.36-.001-6.409 2.414-3.118 5.075 9.527h8.316l-8.197-14.216 7.62-9.544h-7.955l-7.273 9.713V93.36h-7.343v23.76h7.344z"/></g></svg>