<?xml version="1.0" encoding="UTF-8"?>
<svg width="320px" height="210px" viewBox="0 0 320 210" version="1.1" xmlns="http://www.w3.org/2000/svg" xmlns:xlink="http://www.w3.org/1999/xlink">
    <title>Artboard</title>
    <g id="Artboard" stroke="none" stroke-width="1" fill="none" fill-rule="evenodd">
        <rect fill="#2121FF" x="0" y="0" width="320" height="210"></rect>
        <path d="M82.2,116.76 L82.2,108.516 L85.203,108.516 L89.796,116.76 L97.824,116.76 L91.846,107.419 L92.0759008,107.33276 C92.7409587,107.070347 93.3355537,106.742331 93.859686,106.348711 L94.08,106.176 C95.664,104.88 96.456,102.972 96.456,100.452 C96.456,98.196 95.646,96.39 94.026,95.034 C92.406,93.678 90.12,93 87.168,93 L87.168,93 L75,93 L75,116.76 L82.2,116.76 Z M85.98,103.512 L82.2,103.512 L82.2,98.364 L85.98,98.364 C87.012,98.364 87.786,98.568 88.302,98.976 C88.818,99.384 89.076,100.044 89.076,100.956 C89.076,101.868 88.818,102.522 88.302,102.918 C87.786,103.314 87.012,103.512 85.98,103.512 L85.98,103.512 Z M107.325162,116.76 L107.325162,93 L99.981162,93 L99.981162,116.76 L107.325162,116.76 Z M118.914324,116.76 L118.914324,109.344 L123.378324,109.344 C125.418324,109.344 127.152324,109.026 128.580324,108.39 C130.008324,107.754 131.100324,106.83 131.856324,105.618 C132.612324,104.406 132.990324,102.924 132.990324,101.172 C132.990324,99.42 132.612324,97.938 131.856324,96.726 C131.100324,95.514 130.008324,94.59 128.580324,93.954 C127.152324,93.318 125.418324,93 123.378324,93 L123.378324,93 L111.570324,93 L111.570324,116.76 L118.914324,116.76 Z M122.190324,104.016 L118.914324,104.016 L118.914324,98.328 L122.190324,98.328 C123.270324,98.328 124.110324,98.562 124.710324,99.03 C125.310324,99.498 125.610324,100.212 125.610324,101.172 C125.610324,102.132 125.310324,102.846 124.710324,103.314 C124.110324,103.782 123.270324,104.016 122.190324,104.016 L122.190324,104.016 Z M143.535486,116.76 L143.535486,109.344 L147.999486,109.344 C150.039486,109.344 151.773486,109.026 153.201486,108.39 C154.629486,107.754 155.721486,106.83 156.477486,105.618 C157.233486,104.406 157.611486,102.924 157.611486,101.172 C157.611486,99.42 157.233486,97.938 156.477486,96.726 C155.721486,95.514 154.629486,94.59 153.201486,93.954 C151.773486,93.318 150.039486,93 147.999486,93 L147.999486,93 L136.191486,93 L136.191486,116.76 L143.535486,116.76 Z M146.811486,104.016 L143.535486,104.016 L143.535486,98.328 L146.811486,98.328 C147.891486,98.328 148.731486,98.562 149.331486,99.03 C149.931486,99.498 150.231486,100.212 150.231486,101.172 C150.231486,102.132 149.931486,102.846 149.331486,103.314 C148.731486,103.782 147.891486,104.016 146.811486,104.016 L146.811486,104.016 Z M179.460648,116.76 L179.460648,111.252 L168.156648,111.252 L168.156648,93 L160.812648,93 L160.812648,116.76 L179.460648,116.76 Z M202.02981,116.76 L202.02981,111.252 L189.75381,111.252 L189.75381,107.472 L199.18581,107.472 L199.18581,102.36 L189.75381,102.36 L189.75381,98.508 L201.56181,98.508 L201.56181,93 L182.40981,93 L182.40981,116.76 L202.02981,116.76 Z M218.800134,116.76 L220.168134,111.828 L227.404134,111.828 L228.736134,116.76 L236.296134,116.76 L228.268134,93 L219.448134,93 L211.456134,116.76 L218.800134,116.76 Z M226.216134,107.076 L221.392134,107.076 L223.804134,98.22 L226.216134,107.076 Z M245.581296,116.76 L245.581296,93 L238.237296,93 L238.237296,116.76 L245.581296,116.76 Z" id="RIPPLEAI" fill="#FFFFFF" fill-rule="nonzero"></path>
    </g>
</svg>