<?xml version="1.0" encoding="UTF-8"?>
<svg viewBox="0 0 32 26" version="1.1" xmlns="http://www.w3.org/2000/svg" xmlns:xlink="http://www.w3.org/1999/xlink">
    <title>ArrowRight</title>
    <g id="ArrowRight--Page-1" stroke="none" stroke-width="1" fill="none" fill-rule="evenodd">
        <path d="M18.6757812,25.7382812 C19.1210938,25.7382812 19.5195312,25.5683594 19.8710938,25.2285156 L30.8925781,14.2246094 C31.2558594,13.8847656 31.4375,13.46875 31.4375,12.9765625 C31.4375,12.4960938 31.2558594,12.0800781 30.8925781,11.7285156 L19.9238281,0.77734375 C19.7246094,0.578125 19.5224609,0.434570312 19.3173828,0.346679688 C19.1123047,0.258789062 18.8984375,0.21484375 18.6757812,0.21484375 C18.2070312,0.21484375 17.8144531,0.3671875 17.4980469,0.671875 C17.1816406,0.9765625 17.0234375,1.36328125 17.0234375,1.83203125 C17.0234375,2.06640625 17.0644531,2.28613281 17.1464844,2.49121094 C17.2285156,2.69628906 17.3457031,2.875 17.4980469,3.02734375 L21.2421875,6.82421875 L26.401,11.541 L22.4902344,11.3066406 L1.92382812,11.3066406 C1.43164062,11.3066406 1.02734375,11.4619141 0.7109375,11.7724609 C0.39453125,12.0830078 0.236328125,12.484375 0.236328125,12.9765625 C0.236328125,13.4804688 0.39453125,13.8876953 0.7109375,14.1982422 C1.02734375,14.5087891 1.43164062,14.6640625 1.92382812,14.6640625 L22.4902344,14.6640625 L26.417,14.43 L21.2421875,19.1464844 L17.4980469,22.9433594 C17.3457031,23.0957031 17.2285156,23.2744141 17.1464844,23.4794922 C17.0644531,23.6845703 17.0234375,23.9042969 17.0234375,24.1386719 C17.0234375,24.5957031 17.1816406,24.9765625 17.4980469,25.28125 C17.8144531,25.5859375 18.2070312,25.7382812 18.6757812,25.7382812 Z" id="ArrowRight--ArrowRight" fill="#212121" fill-rule="nonzero"></path>
    </g>
</svg>