<svg xmlns="http://www.w3.org/2000/svg" xmlns:xlink="http://www.w3.org/1999/xlink" version="1.1" viewBox="0 0 96 119"><title>arrow-down</title><g id="arrow-down--Page-1" fill="none" fill-rule="evenodd" stroke="none" stroke-width="1"><g id="arrow-down--Artboard" fill="#212121" fill-rule="nonzero" transform="translate(-719.000000, -426.000000)"><path id="arrow-down--arrow-down" d="M767.3125,544.9375 C768.875,544.9375 770.3125,544.3125 771.5,543.0625 L813,501.5 C814.1875,500.25 814.6875,498.9375 814.6875,497.4375 C814.6875,494.375 812.4375,492 809.3125,492 C807.8125,492 806.375,492.5 805.375,493.5 L791.125,507.5 L772.4375,528 L772.875,514.6875 L772.875,432.375 C772.875,429.125 770.5625,426.875 767.3125,426.875 C764.0625,426.875 761.75,429.125 761.75,432.375 L761.75,514.6875 L762.25,528.0625 L743.5,507.5 L729.25,493.5 C728.3125,492.5 726.8125,492 725.3125,492 C722.1875,492 719.9375,494.375 719.9375,497.4375 C719.9375,498.9375 720.5,500.25 721.6875,501.5 L763.125,543.0625 C764.3125,544.3125 765.75,544.9375 767.3125,544.9375 Z"/></g></g></svg>