<?xml version="1.0" encoding="UTF-8"?>
<svg viewBox="0 0 32 26" version="1.1" xmlns="http://www.w3.org/2000/svg" xmlns:xlink="http://www.w3.org/1999/xlink">
    <title>ArrowLeft</title>
    <g id="ArrowLeft--Page-1" stroke="none" stroke-width="1" fill="none" fill-rule="evenodd">
        <path d="M12.9980469,25.7382812 C13.4785156,25.7382812 13.8769531,25.5859375 14.1933594,25.28125 C14.5097656,24.9765625 14.6679688,24.5957031 14.6679688,24.1386719 C14.6679688,23.9042969 14.6240234,23.6845703 14.5361328,23.4794922 C14.4482422,23.2744141 14.328125,23.0957031 14.1757812,22.9433594 L10.4492188,19.1464844 L5.274,14.431 L9.20117188,14.6640625 L29.7675781,14.6640625 C30.2597656,14.6640625 30.6611328,14.5087891 30.9716797,14.1982422 C31.2822266,13.8876953 31.4375,13.4804688 31.4375,12.9765625 C31.4375,12.484375 31.2822266,12.0830078 30.9716797,11.7724609 C30.6611328,11.4619141 30.2597656,11.3066406 29.7675781,11.3066406 L9.20117188,11.3066406 L5.29,11.54 L10.4492188,6.82421875 L14.1757812,3.02734375 C14.328125,2.875 14.4482422,2.69628906 14.5361328,2.49121094 C14.6240234,2.28613281 14.6679688,2.06640625 14.6679688,1.83203125 C14.6679688,1.36328125 14.5097656,0.9765625 14.1933594,0.671875 C13.8769531,0.3671875 13.4785156,0.21484375 12.9980469,0.21484375 C12.7871094,0.21484375 12.5791016,0.258789062 12.3740234,0.346679688 C12.1689453,0.434570312 11.9609375,0.578125 11.75,0.77734375 L0.798828125,11.7285156 C0.423828125,12.0800781 0.236328125,12.4960938 0.236328125,12.9765625 C0.236328125,13.46875 0.423828125,13.8847656 0.798828125,14.2246094 L11.8027344,25.2285156 C12.1660156,25.5683594 12.5644531,25.7382812 12.9980469,25.7382812 Z" id="ArrowLeft--ArrowLeft" fill="#212121" fill-rule="nonzero"></path>
    </g>
</svg>